<?xml version="1.0" encoding="utf-8"?>
<!-- Generator: Adobe Illustrator 28.0.0, SVG Export Plug-In . SVG Version: 6.00 Build 0)  -->
<svg version="1.1" id="Layer_1" xmlns="http://www.w3.org/2000/svg" xmlns:xlink="http://www.w3.org/1999/xlink" x="0px" y="0px"
	 viewBox="0 0 150 150" style="enable-background:new 0 0 150 150;" xml:space="preserve">
<style type="text/css">
	.st0{fill:#010101;}
</style>
<path class="st0" d="M74.52,145.31c-15.46,0-30.92,0.01-46.39,0c-11.06-0.01-19.92-6.66-22.66-16.99c-0.57-2.15-0.78-4.36-0.78-6.58
	c-0.01-31.16-0.01-62.32,0-93.48c0-11.64,7.35-20.91,18.23-23.07c1.77-0.35,3.58-0.51,5.39-0.51c31.16,0,62.31-0.01,93.47,0
	c13.64,0.01,23.52,9.86,23.53,23.48c0.02,31.22,0.02,62.44,0,93.65c-0.01,11.6-7.41,20.88-18.31,23c-1.77,0.35-3.58,0.49-5.39,0.49
	C105.91,145.31,90.21,145.31,74.52,145.31z M66.16,75.04c-0.07-4.3-1.31-8.28-4.07-11.61c-6.39-7.72-12.87-15.37-19.35-23.02
	c-1.54-1.81-3.51-2.04-5.04-0.71c-1.57,1.37-1.61,3.25-0.06,5.1c5.92,7.05,11.84,14.11,17.78,21.15c5.26,6.23,5.25,11.91-0.03,18.15
	c-5.95,7.03-11.86,14.09-17.78,21.14c-0.96,1.14-1.45,2.34-0.82,3.85c0.9,2.16,4.03,2.91,6.01,0.51
	c6.35-7.68,12.85-15.24,19.21-22.91C64.78,83.35,66.06,79.39,66.16,75.04z M99.58,111.14c5.02,0,10.03,0.02,15.05-0.01
	c2.41-0.01,3.78-1.27,3.79-3.36c0.01-2.05-1.43-3.4-3.78-3.4c-9.97-0.02-19.95-0.02-29.92,0c-2.45,0-3.98,1.41-3.92,3.49
	c0.06,2,1.54,3.28,3.91,3.28C89.67,111.15,94.63,111.14,99.58,111.14z"/>
</svg>
